<svg width="685" height="370" viewBox="0 0 685 370" fill="none" xmlns="http://www.w3.org/2000/svg">
<path d="M24.9668 119V117.2L32.3468 115.4C37.2668 114.32 39.7268 111.32 39.7268 106.4V3.79995H24.4268C19.9868 3.79995 16.8068 4.99995 14.8868 7.39996C12.9668 9.67996 10.9268 12.86 8.76682 16.9399L2.28682 29.54H0.486816L1.38682 0.199951H105.247L105.967 29.54H104.167L97.6868 16.9399C95.6468 12.86 93.6668 9.67996 91.7468 7.39996C89.8268 4.99995 86.6468 3.79995 82.2068 3.79995H66.9068V106.4C66.9068 111.32 69.3668 114.32 74.2868 115.4L81.6668 117.2V119H24.9668Z" fill="#8D5033"/>
<path d="M149.698 119V117.2L153.298 115.76C155.698 114.92 157.258 113.78 157.978 112.34C158.818 110.9 159.238 108.98 159.238 106.58V12.6199C159.238 10.22 158.878 8.29995 158.158 6.85995C157.438 5.41994 155.818 4.27995 153.298 3.43995L149.698 1.99995V0.199951H195.958V1.99995L192.358 3.43995C189.958 4.27995 188.338 5.41994 187.498 6.85995C186.778 8.29995 186.418 10.22 186.418 12.6199V106.58C186.418 108.98 186.778 110.9 187.498 112.34C188.338 113.66 189.958 114.8 192.358 115.76L195.958 117.2V119H149.698Z" fill="#8D5033"/>
<path d="M239.839 119V117.2L243.619 115.76C246.139 114.8 247.699 113.66 248.299 112.34C249.019 110.9 249.379 108.98 249.379 106.58V12.6199C249.379 10.22 249.019 8.29995 248.299 6.85995C247.579 5.41994 246.019 4.27995 243.619 3.43995L239.839 1.99995V0.199951H285.739V1.99995L282.499 3.43995C280.219 4.27995 278.659 5.47995 277.819 7.03995C276.979 8.47995 276.559 10.4 276.559 12.7999V115.4H304.279C308.719 115.4 311.959 114.32 313.999 112.16C316.159 110 318.199 106.88 320.119 102.8L327.139 87.6799H328.939L327.319 119H239.839Z" fill="#8D5033"/>
<path d="M371.464 119V117.2L375.244 115.76C377.764 114.8 379.324 113.66 379.924 112.34C380.644 110.9 381.004 108.98 381.004 106.58V12.6199C381.004 10.22 380.644 8.29995 379.924 6.85995C379.204 5.41994 377.644 4.27995 375.244 3.43995L371.464 1.99995V0.199951H417.364V1.99995L414.124 3.43995C411.844 4.27995 410.284 5.47995 409.444 7.03995C408.604 8.47995 408.184 10.4 408.184 12.7999V115.4H435.904C440.344 115.4 443.584 114.32 445.624 112.16C447.784 110 449.824 106.88 451.744 102.8L458.764 87.6799H460.564L458.944 119H371.464Z" fill="#8D5033"/>
<path d="M503.089 119V117.2L506.689 115.76C509.089 114.92 510.649 113.78 511.369 112.34C512.209 110.9 512.629 108.98 512.629 106.58V12.6199C512.629 10.22 512.269 8.29995 511.549 6.85995C510.829 5.41994 509.209 4.27995 506.689 3.43995L503.089 1.99995V0.199951H549.349V1.99995L545.749 3.43995C543.349 4.27995 541.729 5.41994 540.889 6.85995C540.169 8.29995 539.809 10.22 539.809 12.6199V106.58C539.809 108.98 540.169 110.9 540.889 112.34C541.729 113.66 543.349 114.8 545.749 115.76L549.349 117.2V119H503.089Z" fill="#8D5033"/>
<path d="M593.23 119V117.2L597.37 115.58C599.41 114.74 600.79 113.66 601.51 112.34C602.35 110.9 602.77 108.98 602.77 106.58V12.6199C602.77 10.22 602.41 8.35995 601.69 7.03995C601.09 5.59995 599.65 4.45995 597.37 3.61995L593.23 1.99995V0.199951H679.45L680.53 27.9199H678.73L670.99 10.9999C669.91 8.83995 668.77 7.09995 667.57 5.77995C666.37 4.45995 664.57 3.79995 662.17 3.79995H629.77V55.82H649.03C651.43 55.82 653.23 55.22 654.43 54.02C655.75 52.7 656.89 50.96 657.85 48.7999L661.45 41.6H663.25V74H661.45L657.85 66.44C656.77 64.28 655.63 62.6 654.43 61.3999C653.23 60.0799 651.43 59.42 649.03 59.42H629.77V115.4H666.13C668.53 115.4 670.39 114.8 671.71 113.6C673.03 112.28 674.11 110.48 674.95 108.2L682.33 91.28H684.13L683.05 119H593.23Z" fill="#8D5033"/>
<path d="M89.9074 369.24C78.2674 369.24 67.7074 366.9 58.2274 362.22C48.8674 357.42 41.4274 350.34 35.9074 340.98C30.3874 331.62 27.6274 320.16 27.6274 306.6C27.6274 296.28 29.3074 287.22 32.6674 279.42C36.0274 271.62 40.5874 265.08 46.3474 259.8C52.2274 254.52 58.9474 250.56 66.5074 247.92C74.1874 245.28 82.2874 243.96 90.8074 243.96C97.6474 243.96 103.947 244.74 109.707 246.3C115.467 247.86 120.867 250.02 125.907 252.78L126.627 274.92H124.827L115.827 260.52C114.627 258.24 113.307 256.2 111.867 254.4C110.427 252.48 108.627 251.04 106.467 250.08C104.667 249.24 102.867 248.64 101.067 248.28C99.3875 247.8 97.2274 247.56 94.5874 247.56C87.6274 247.56 81.2674 249.42 75.5074 253.14C69.8674 256.86 65.3074 263.04 61.8274 271.68C58.4674 280.2 56.7874 291.9 56.7874 306.78C56.7874 321.54 58.4074 333.24 61.6474 341.88C64.8874 350.4 69.2674 356.52 74.7874 360.24C80.4274 363.84 86.7274 365.64 93.6874 365.64C97.5274 365.64 100.587 365.4 102.867 364.92C105.147 364.32 107.427 363.48 109.707 362.4C111.987 361.44 113.727 360.06 114.927 358.26C116.127 356.34 117.207 354.3 118.167 352.14L126.087 334.5H127.887L127.347 360.24C122.307 362.88 116.667 365.04 110.427 366.72C104.187 368.4 97.3474 369.24 89.9074 369.24Z" fill="#8D5033"/>
<path d="M172.444 366V364.2L176.044 362.76C178.444 361.92 180.004 360.78 180.724 359.34C181.564 357.9 181.984 356.04 181.984 353.76V259.62C181.984 257.22 181.564 255.3 180.724 253.86C180.004 252.42 178.444 251.28 176.044 250.44L172.444 249V247.2H218.164V249L215.104 250.26C212.824 251.1 211.264 252.24 210.424 253.68C209.584 255 209.164 256.86 209.164 259.26V303H252.184V259.26C252.184 256.86 251.764 255 250.924 253.68C250.204 252.24 248.644 251.1 246.244 250.26L243.004 249V247.2H288.904V249L285.304 250.44C283.024 251.28 281.464 252.42 280.624 253.86C279.784 255.3 279.364 257.22 279.364 259.62V353.76C279.364 356.04 279.784 357.9 280.624 359.34C281.464 360.78 283.024 361.92 285.304 362.76L288.904 364.2V366H243.004V364.2L246.244 363.12C248.644 362.16 250.204 361.02 250.924 359.7C251.764 358.26 252.184 356.34 252.184 353.94V306.6H209.164V353.94C209.164 358.38 211.144 361.44 215.104 363.12L218.164 364.2V366H172.444Z" fill="#8D5033"/>
<path d="M332.898 366V364.2L336.678 362.94C339.078 362.1 340.638 361.02 341.358 359.7C342.078 358.26 342.438 356.28 342.438 353.76V259.62C342.438 257.22 342.078 255.36 341.358 254.04C340.758 252.6 339.318 251.46 337.038 250.62L332.898 249V247.2H384.378C398.538 247.2 409.398 249.9 416.958 255.3C424.518 260.58 428.298 267.96 428.298 277.44C428.298 282.72 426.318 288 422.358 293.28C418.398 298.56 412.158 302.64 403.638 305.52L428.658 355.2C429.738 357.24 430.938 358.92 432.258 360.24C433.698 361.44 435.558 362.52 437.838 363.48L440.178 364.38V366H407.958L381.318 309.3H369.078V353.76C369.078 356.04 369.438 357.9 370.158 359.34C370.878 360.78 372.378 361.86 374.658 362.58L378.978 364.2V366H332.898ZM369.078 305.7H377.718C386.358 305.7 392.598 303.42 396.438 298.86C400.278 294.18 402.198 287.28 402.198 278.16C402.198 268.92 400.398 262.08 396.798 257.64C393.198 253.08 387.138 250.8 378.618 250.8H369.078V305.7Z" fill="#8D5033"/>
<path d="M481.925 366V364.2L485.525 362.76C487.925 361.92 489.485 360.78 490.205 359.34C491.045 357.9 491.465 355.98 491.465 353.58V259.62C491.465 257.22 491.105 255.3 490.385 253.86C489.665 252.42 488.045 251.28 485.525 250.44L481.925 249V247.2H528.185V249L524.585 250.44C522.185 251.28 520.565 252.42 519.725 253.86C519.005 255.3 518.645 257.22 518.645 259.62V353.58C518.645 355.98 519.005 357.9 519.725 359.34C520.565 360.66 522.185 361.8 524.585 362.76L528.185 364.2V366H481.925Z" fill="#8D5033"/>
<path d="M610.766 369.24C604.166 369.24 597.446 368.4 590.606 366.72C583.766 365.16 578.066 363.06 573.506 360.42L574.406 335.94H576.206L581.786 347.64C583.466 351 585.266 354 587.186 356.64C589.106 359.16 591.746 361.14 595.106 362.58C597.506 363.78 599.786 364.62 601.946 365.1C604.226 365.46 606.746 365.64 609.506 365.64C616.826 365.64 622.586 363.66 626.786 359.7C631.106 355.74 633.266 350.64 633.266 344.4C633.266 338.52 631.826 333.96 628.946 330.72C626.066 327.36 621.446 324.12 615.086 321L607.706 317.76C597.386 313.2 589.286 307.98 583.406 302.1C577.646 296.1 574.766 288.18 574.766 278.34C574.766 271.26 576.566 265.14 580.166 259.98C583.886 254.82 588.986 250.86 595.466 248.1C602.066 245.34 609.746 243.96 618.506 243.96C624.866 243.96 630.866 244.8 636.506 246.48C642.266 248.16 647.246 250.44 651.446 253.32L650.366 274.92H648.566L641.186 261.42C639.146 257.22 637.106 254.28 635.066 252.6C633.026 250.8 630.686 249.54 628.046 248.82C626.486 248.34 625.046 248.04 623.726 247.92C622.406 247.68 620.726 247.56 618.686 247.56C612.566 247.56 607.406 249.36 603.206 252.96C599.006 256.44 596.906 261.18 596.906 267.18C596.906 273.3 598.526 278.22 601.766 281.94C605.006 285.54 609.746 288.78 615.986 291.66L624.266 295.26C635.786 300.3 644.066 305.7 649.106 311.46C654.146 317.1 656.666 324.42 656.666 333.42C656.666 343.98 652.646 352.62 644.606 359.34C636.686 365.94 625.406 369.24 610.766 369.24Z" fill="#8D5033"/>
<path d="M288.04 162.18L290.56 161.64C291.88 161.64 293.14 162.18 294.34 163.26C295.54 164.34 296.14 165.18 296.14 165.78C296.14 166.38 292.42 172.2 284.98 183.24C277.54 194.16 273.82 201.78 273.82 206.1C273.82 206.46 273.88 206.82 274 207.18C274.6 209.94 275.92 211.32 277.96 211.32C284.2 211.32 295.6 201 312.16 180.36C312.52 179.88 312.94 179.64 313.42 179.64C313.9 179.64 314.14 180.12 314.14 181.08C314.14 181.92 313.6 183.06 312.52 184.5C297.16 205.02 285.46 215.28 277.42 215.28C276.34 215.28 275.32 215.1 274.36 214.74C269.08 212.7 266.44 208.74 266.44 202.86C266.44 200.82 266.68 198.78 267.16 196.74L256 207.54C248.92 213.78 243.76 216.9 240.52 216.9C237.4 216.9 234.4 215.88 231.52 213.84C228.28 211.44 226.66 208.26 226.66 204.3C226.66 195.54 232.78 185.1 245.02 172.98C257.26 160.74 268.48 154.62 278.68 154.62C282.64 154.62 285.28 156 286.6 158.76C286.96 159.72 287.26 160.56 287.5 161.28C287.74 161.88 287.92 162.18 288.04 162.18ZM234.22 206.46C234.22 210.78 235.72 212.94 238.72 212.94C245.68 212.94 255.16 205.32 267.16 190.08L286.24 163.8C285.28 162.12 283.72 161.28 281.56 161.28C274.24 161.28 264.52 166.98 252.4 178.38C240.28 189.66 234.22 199.02 234.22 206.46Z" fill="#8D5033"/>
<path d="M331.259 159.12C334.499 159.12 336.119 160.38 336.119 162.9C336.119 163.62 335.939 164.34 335.579 165.06C324.779 180.06 318.299 191.4 316.139 199.08C344.099 171.12 361.079 157.14 367.079 157.14C367.679 157.02 368.219 156.96 368.699 156.96C372.059 156.96 373.739 158.46 373.739 161.46C373.739 162.06 373.619 162.66 373.379 163.26C373.139 163.86 370.739 167.1 366.179 172.98C360.899 179.22 356.399 185.22 352.679 190.98C349.079 196.74 347.279 201.54 347.279 205.38C347.279 209.22 348.119 211.14 349.799 211.14C355.079 211.14 364.259 203.88 377.339 189.36C377.579 189.12 377.999 188.58 378.599 187.74C380.399 185.58 381.479 184.5 381.839 184.5C382.199 184.5 382.379 185.1 382.379 186.3C382.379 187.5 381.539 189.06 379.859 190.98C364.979 207.9 354.419 216.36 348.179 216.36C342.299 216.36 339.359 213.12 339.359 206.64C339.359 200.16 341.759 192.72 346.559 184.32L358.079 165.6C349.919 171.6 342.659 178.2 336.299 185.4C329.939 192.48 324.119 199.38 318.839 206.1C313.679 212.82 310.679 216.18 309.839 216.18C308.039 216.18 306.599 215.46 305.519 214.02C304.559 212.46 304.079 210.6 304.079 208.44C304.079 206.16 304.859 203.16 306.419 199.44C307.979 195.72 309.959 191.22 312.359 185.94L301.559 197.28C298.919 199.92 297.299 201.24 296.699 201.24C295.979 201.24 295.619 200.88 295.619 200.16C295.619 199.32 296.099 198.42 297.059 197.46C301.499 193.02 305.339 188.76 308.579 184.68C311.699 180.6 318.119 172.8 327.839 161.28C328.919 159.84 330.059 159.12 331.259 159.12Z" fill="#8D5033"/>
<path d="M434.097 161.46C447.537 139.62 456.897 128.7 462.177 128.7C463.017 128.7 464.157 129 465.597 129.6C467.157 130.08 467.937 130.86 467.937 131.94C467.937 132.54 467.637 133.32 467.037 134.28C457.437 146.04 450.297 154.86 445.617 160.74C431.457 178.62 423.657 191.46 422.217 199.26C421.857 200.94 421.677 202.62 421.677 204.3C421.677 209.7 423.897 212.4 428.337 212.4C437.217 212.4 448.797 204.18 463.077 187.74C464.277 186.54 465.297 185.88 466.137 185.76C466.977 185.52 467.397 185.7 467.397 186.3C467.397 186.9 467.037 187.62 466.317 188.46C452.397 205.14 440.037 214.44 429.237 216.36C428.637 216.48 427.797 216.54 426.717 216.54C422.997 216.54 420.177 215.28 418.257 212.76C416.457 210.12 415.557 207.3 415.557 204.3C415.557 200.94 416.217 197.22 417.537 193.14L402.957 207.72C396.357 213.84 391.137 216.9 387.297 216.9C383.577 216.9 380.457 215.88 377.937 213.84C374.937 211.56 373.437 208.38 373.437 204.3C373.437 195.54 379.557 185.1 391.797 172.98C404.037 160.74 415.257 154.62 425.457 154.62C428.817 154.62 431.157 155.52 432.477 157.32C432.957 157.92 433.497 159.3 434.097 161.46ZM380.997 206.46C380.997 210.78 382.497 212.94 385.497 212.94C390.657 212.94 399.237 205.86 411.237 191.7C413.397 189.18 420.597 179.76 432.837 163.44C431.997 162 430.557 161.28 428.517 161.28C421.077 161.28 411.297 166.98 399.177 178.38C387.057 189.66 380.997 199.02 380.997 206.46Z" fill="#8D5033"/>
</svg>
